<?xml version="1.0" encoding="iso-8859-1"?>
<!-- Uploaded to: SVG Repo, www.svgrepo.com, Generator: SVG Repo Mixer Tools -->
<svg height="800px" width="800px" version="1.1" id="Layer_1" xmlns="http://www.w3.org/2000/svg" xmlns:xlink="http://www.w3.org/1999/xlink" 
	 viewBox="0 0 512.002 512.002" xml:space="preserve">
<path style="fill:#74C64B;" d="M266.125,39.93v446.28c-3.346,0.14-6.723,0.218-10.115,0.218c-3.393,0-6.769-0.078-10.115-0.218
	V39.93c3.346-0.203,6.723-0.296,10.115-0.296C259.402,39.634,262.779,39.727,266.125,39.93z"/>
<path style="fill:#8CC1EA;" d="M492.167,275.797c0,3.128-0.062,6.24-0.186,9.338c-2.148,55.323-23.343,105.777-57.207,144.978
	c-4.124,4.793-8.45,9.415-12.963,13.851c-40.399,39.824-95.101,65.221-155.685,67.774c-3.346,0.14-6.723,0.218-10.115,0.218
	c-3.393,0-6.769-0.078-10.115-0.218c-60.584-2.553-115.286-27.95-155.685-67.789c-4.513-4.42-8.839-9.042-12.979-13.834
	c-33.864-39.202-55.06-89.655-57.207-144.978c-0.125-3.096-0.186-6.209-0.186-9.338c0-3.128,0.063-6.24,0.186-9.338
	c2.148-55.323,23.343-105.777,57.207-144.978c4.14-4.793,8.45-9.415,12.963-13.851c40.399-39.839,95.101-65.238,155.701-67.789
	c3.346-0.14,6.723-0.218,10.115-0.218c3.393,0,6.769,0.078,10.115,0.218c60.584,2.553,115.286,27.95,155.685,67.789
	c4.513,4.435,8.839,9.057,12.963,13.851c33.864,39.202,55.06,89.655,57.207,144.978
	C492.105,269.556,492.167,272.669,492.167,275.797z"/>
<path style="fill:#79B1D6;" d="M152.083,443.948c-4.513-4.42-8.839-9.042-12.979-13.836c-33.864-39.202-55.06-89.655-57.207-144.978
	c-0.124-3.098-0.186-6.209-0.186-9.338c0-3.128,0.063-6.24,0.186-9.338c2.148-55.323,23.343-105.777,57.207-144.978
	c4.14-4.793,8.45-9.415,12.963-13.851c35.715-35.22,82.612-59.14,134.877-65.98c-6.853-0.898-13.794-1.514-20.82-1.809
	c-3.346-0.14-6.723-0.218-10.115-0.218c-3.393,0-6.769,0.078-10.115,0.218c-60.6,2.553-115.301,27.95-155.701,67.789
	c-4.513,4.435-8.824,9.057-12.963,13.851c-33.864,39.202-55.06,89.655-57.207,144.978c-0.124,3.096-0.186,6.209-0.186,9.338
	c0,3.128,0.063,6.24,0.186,9.338c2.148,55.323,23.343,105.777,57.207,144.978c4.14,4.793,8.465,9.415,12.979,13.836
	c40.399,39.839,95.101,65.238,155.685,67.789c3.346,0.14,6.723,0.217,10.115,0.217c3.393,0,6.77-0.078,10.115-0.217
	c7.025-0.296,13.968-0.913,20.822-1.81C234.695,503.087,187.798,479.167,152.083,443.948z"/>
<g>
	<path style="fill:#6BA3C1;" d="M385.158,404.847c16.123-38.016,24.785-82.534,24.785-129.055c0-46.518-8.66-91.034-24.781-129.049
		c17.506-6.744,33.754-14.926,48.383-24.452l1.229-0.809c-4.124-4.793-8.45-9.415-12.963-13.851
		c-13.347,8.522-28.375,15.906-44.628,22.038c-3.404-6.647-7.049-13.054-10.945-19.179c-26.736-42.029-61.975-66.685-100.113-70.399
		v-0.25c-1.975-0.083-3.964-0.135-5.959-0.171c-1.384-0.055-2.771-0.086-4.163-0.086c-1.391,0-2.78,0.031-4.165,0.088
		c-1.99,0.036-3.974,0.089-5.945,0.171v0.249c-38.14,3.71-73.383,28.366-100.121,70.399c-3.895,6.124-7.539,12.532-10.944,19.177
		c-16.252-6.132-31.284-13.514-44.633-22.036c-4.513,4.435-8.824,9.057-12.963,13.851l1.229,0.809
		c14.633,9.525,30.884,17.707,48.391,24.451c-15.041,35.465-23.576,76.589-24.655,119.718H20.024
		c-0.125,3.096-0.186,6.209-0.186,9.338c0,3.128,0.063,6.24,0.186,9.338h82.172c1.08,43.127,9.617,84.25,24.657,119.713
		c-17.507,6.747-33.759,14.929-48.393,24.456l-1.229,0.809c4.14,4.793,8.467,9.415,12.979,13.834
		c13.348-8.514,28.374-15.894,44.623-22.026c3.404,6.643,7.047,13.049,10.94,19.172c26.739,42.034,61.981,66.69,100.121,70.4v0.244
		c1.931,0.081,3.875,0.134,5.824,0.17c1.426,0.059,2.854,0.094,4.286,0.094c1.431,0,2.859-0.035,4.284-0.094
		c1.954-0.036,3.901-0.089,5.836-0.17v-0.245c38.137-3.714,73.377-28.369,100.113-70.399c3.895-6.123,7.538-12.529,10.942-19.173
		c16.254,6.134,31.284,13.521,44.63,22.043c4.513-4.435,8.839-9.058,12.963-13.851l-1.229-0.809
		C418.914,419.776,402.665,411.593,385.158,404.847z M389.711,275.792c0,44.375-8.305,86.638-23.721,122.407
		c-30.69-9.548-64.536-14.979-99.865-15.852v-97.214h93.514c5.156,0,9.338-4.18,9.338-9.338c0-5.156-4.18-9.338-9.338-9.338h-93.514
		v-97.229c35.329-0.871,69.175-6.299,99.866-15.843C381.407,189.157,389.711,231.417,389.711,275.792z M349.168,121.349
		c3.034,4.77,5.893,9.744,8.607,14.868c-28.356,8.513-59.589,13.464-91.649,14.329V60.44
		C297.208,64.246,326.382,85.532,349.168,121.349z M162.843,121.349c22.786-35.821,51.965-57.108,83.052-60.912v90.11
		c-32.058-0.865-63.294-5.818-91.657-14.332C156.95,131.091,159.809,126.118,162.843,121.349z M146.019,153.387
		c30.695,9.545,64.544,14.973,99.875,15.844v97.229H122.443C123.522,225.503,131.688,186.637,146.019,153.387z M122.443,285.135
		h123.451v97.214c-35.331,0.871-69.179,6.304-99.874,15.853C131.689,364.953,123.523,326.089,122.443,285.135z M162.843,430.235
		c-3.033-4.768-5.891-9.739-8.604-14.862c28.362-8.517,59.596-13.476,91.655-14.341v90.115
		C214.808,487.342,185.629,466.057,162.843,430.235z M349.168,430.235c-22.785,35.816-51.96,57.103-83.042,60.91v-90.114
		c32.06,0.865,63.291,5.822,91.647,14.338C355.059,420.494,352.2,425.466,349.168,430.235z"/>
	<path style="fill:#6BA3C1;" d="M491.98,266.46h-50.654c-5.156,0-9.338,4.18-9.338,9.338c0,5.156,4.18,9.338,9.338,9.338h50.654
		c0.125-3.096,0.186-6.209,0.186-9.338C492.167,272.669,492.105,269.556,491.98,266.46z"/>
</g>
<path style="fill:#F2CA7F;" d="M450.594,59.996c-17.422-79.994-132.876-79.994-150.298,0c-1.744,8.005-2.663,16.319-2.663,24.848
	c0,50.731,32.5,93.864,77.812,109.734c45.312-15.871,77.812-59.004,77.812-109.734C453.256,76.316,452.337,68.002,450.594,59.996z"
	/>
<circle style="fill:#79B1D6;" cx="375.441" cy="78.595" r="33.75"/>
<path style="fill:#E0B76E;" d="M375.445,121.721c-23.78,0-43.125-19.346-43.125-43.125s19.346-43.125,43.125-43.125
	c23.778,0,43.125,19.346,43.125,43.125C418.569,102.375,399.224,121.721,375.445,121.721z M375.445,54.221
	c-13.441,0-24.375,10.934-24.375,24.375c0,13.439,10.934,24.375,24.375,24.375c13.439,0,24.375-10.934,24.375-24.375
	C399.819,65.155,388.884,54.221,375.445,54.221z"/>
</svg>